<mxfile host="Electron" modified="2023-11-18T07:39:58.330Z" agent="Mozilla/5.0 (Windows NT 10.0; Win64; x64) AppleWebKit/537.36 (KHTML, like Gecko) draw.io/22.1.2 Chrome/114.0.5735.289 Electron/25.9.4 Safari/537.36" etag="31B68Csn6Rl1m6SLwktr" version="22.1.2" type="device">
  <diagram name="第 1 页" id="XE-WoYE8llsoScOO1yGt">
    <mxGraphModel dx="1195" dy="703" grid="1" gridSize="10" guides="1" tooltips="1" connect="1" arrows="1" fold="1" page="1" pageScale="1" pageWidth="827" pageHeight="1169" math="0" shadow="0">
      <root>
        <mxCell id="0" />
        <mxCell id="1" parent="0" />
        <mxCell id="q-5vX79E5HvLCE0JNWe8-3" style="edgeStyle=orthogonalEdgeStyle;rounded=0;orthogonalLoop=1;jettySize=auto;html=1;exitX=0.5;exitY=1;exitDx=0;exitDy=0;" edge="1" parent="1" source="q-5vX79E5HvLCE0JNWe8-1" target="q-5vX79E5HvLCE0JNWe8-2">
          <mxGeometry relative="1" as="geometry" />
        </mxCell>
        <mxCell id="q-5vX79E5HvLCE0JNWe8-1" value="start" style="rounded=0;whiteSpace=wrap;html=1;" vertex="1" parent="1">
          <mxGeometry x="320" y="40" width="120" height="60" as="geometry" />
        </mxCell>
        <mxCell id="q-5vX79E5HvLCE0JNWe8-6" style="edgeStyle=orthogonalEdgeStyle;rounded=0;orthogonalLoop=1;jettySize=auto;html=1;entryX=0.5;entryY=0;entryDx=0;entryDy=0;" edge="1" parent="1" source="q-5vX79E5HvLCE0JNWe8-2" target="q-5vX79E5HvLCE0JNWe8-4">
          <mxGeometry relative="1" as="geometry" />
        </mxCell>
        <mxCell id="q-5vX79E5HvLCE0JNWe8-2" value="&lt;font style=&quot;font-size: 6px;&quot;&gt;pre_fibState=get_fibState()&lt;br&gt;pre_Volume=volume&lt;br&gt;tradeId=1&lt;br&gt;trade_status// 0 none 1 lone -1 short&lt;br&gt;&lt;/font&gt;" style="rounded=0;whiteSpace=wrap;html=1;" vertex="1" parent="1">
          <mxGeometry x="320" y="130" width="120" height="60" as="geometry" />
        </mxCell>
        <mxCell id="q-5vX79E5HvLCE0JNWe8-4" value="price update" style="rounded=0;whiteSpace=wrap;html=1;" vertex="1" parent="1">
          <mxGeometry x="320" y="220" width="120" height="60" as="geometry" />
        </mxCell>
        <mxCell id="q-5vX79E5HvLCE0JNWe8-9" style="edgeStyle=orthogonalEdgeStyle;rounded=0;orthogonalLoop=1;jettySize=auto;html=1;entryX=0.5;entryY=0;entryDx=0;entryDy=0;" edge="1" parent="1" source="q-5vX79E5HvLCE0JNWe8-5" target="q-5vX79E5HvLCE0JNWe8-8">
          <mxGeometry relative="1" as="geometry" />
        </mxCell>
        <mxCell id="q-5vX79E5HvLCE0JNWe8-5" value="update tunnel" style="rounded=0;whiteSpace=wrap;html=1;" vertex="1" parent="1">
          <mxGeometry x="320" y="310" width="120" height="60" as="geometry" />
        </mxCell>
        <mxCell id="q-5vX79E5HvLCE0JNWe8-7" style="edgeStyle=orthogonalEdgeStyle;rounded=0;orthogonalLoop=1;jettySize=auto;html=1;entryX=0.489;entryY=-0.057;entryDx=0;entryDy=0;entryPerimeter=0;" edge="1" parent="1" source="q-5vX79E5HvLCE0JNWe8-4" target="q-5vX79E5HvLCE0JNWe8-5">
          <mxGeometry relative="1" as="geometry" />
        </mxCell>
        <mxCell id="q-5vX79E5HvLCE0JNWe8-11" style="edgeStyle=orthogonalEdgeStyle;rounded=0;orthogonalLoop=1;jettySize=auto;html=1;exitX=0.5;exitY=1;exitDx=0;exitDy=0;entryX=0.5;entryY=0;entryDx=0;entryDy=0;" edge="1" parent="1" source="q-5vX79E5HvLCE0JNWe8-8" target="q-5vX79E5HvLCE0JNWe8-10">
          <mxGeometry relative="1" as="geometry" />
        </mxCell>
        <mxCell id="q-5vX79E5HvLCE0JNWe8-8" value="&lt;font style=&quot;font-size: 8px;&quot;&gt;fibState_v=get_fibState()-pre_fibState//vector&lt;br&gt;&lt;br&gt;&lt;/font&gt;" style="rounded=0;whiteSpace=wrap;html=1;" vertex="1" parent="1">
          <mxGeometry x="320" y="400" width="120" height="60" as="geometry" />
        </mxCell>
        <mxCell id="q-5vX79E5HvLCE0JNWe8-13" style="edgeStyle=orthogonalEdgeStyle;rounded=0;orthogonalLoop=1;jettySize=auto;html=1;exitX=0.5;exitY=1;exitDx=0;exitDy=0;entryX=0.5;entryY=0;entryDx=0;entryDy=0;" edge="1" parent="1" source="q-5vX79E5HvLCE0JNWe8-10" target="q-5vX79E5HvLCE0JNWe8-12">
          <mxGeometry relative="1" as="geometry" />
        </mxCell>
        <mxCell id="q-5vX79E5HvLCE0JNWe8-16" value="0&lt;br&gt;" style="edgeLabel;html=1;align=center;verticalAlign=middle;resizable=0;points=[];" vertex="1" connectable="0" parent="q-5vX79E5HvLCE0JNWe8-13">
          <mxGeometry x="-0.0857" y="1" relative="1" as="geometry">
            <mxPoint as="offset" />
          </mxGeometry>
        </mxCell>
        <mxCell id="q-5vX79E5HvLCE0JNWe8-33" style="edgeStyle=orthogonalEdgeStyle;rounded=0;orthogonalLoop=1;jettySize=auto;html=1;entryX=0.5;entryY=0;entryDx=0;entryDy=0;" edge="1" parent="1" source="q-5vX79E5HvLCE0JNWe8-10" target="q-5vX79E5HvLCE0JNWe8-32">
          <mxGeometry relative="1" as="geometry" />
        </mxCell>
        <mxCell id="q-5vX79E5HvLCE0JNWe8-10" value="&lt;font style=&quot;font-size: 9px;&quot;&gt;trade_Status?&lt;/font&gt;" style="rhombus;whiteSpace=wrap;html=1;" vertex="1" parent="1">
          <mxGeometry x="340" y="490" width="80" height="80" as="geometry" />
        </mxCell>
        <mxCell id="q-5vX79E5HvLCE0JNWe8-18" style="edgeStyle=orthogonalEdgeStyle;rounded=0;orthogonalLoop=1;jettySize=auto;html=1;exitX=0.5;exitY=1;exitDx=0;exitDy=0;entryX=0.5;entryY=0;entryDx=0;entryDy=0;" edge="1" parent="1" source="q-5vX79E5HvLCE0JNWe8-12" target="q-5vX79E5HvLCE0JNWe8-17">
          <mxGeometry relative="1" as="geometry" />
        </mxCell>
        <mxCell id="q-5vX79E5HvLCE0JNWe8-19" value="Yes" style="edgeLabel;html=1;align=center;verticalAlign=middle;resizable=0;points=[];" vertex="1" connectable="0" parent="q-5vX79E5HvLCE0JNWe8-18">
          <mxGeometry x="-0.3714" relative="1" as="geometry">
            <mxPoint as="offset" />
          </mxGeometry>
        </mxCell>
        <mxCell id="q-5vX79E5HvLCE0JNWe8-12" value="fibState&amp;gt;0" style="rhombus;whiteSpace=wrap;html=1;" vertex="1" parent="1">
          <mxGeometry x="320" y="600" width="120" height="80" as="geometry" />
        </mxCell>
        <mxCell id="q-5vX79E5HvLCE0JNWe8-22" style="edgeStyle=orthogonalEdgeStyle;rounded=0;orthogonalLoop=1;jettySize=auto;html=1;entryX=0.5;entryY=0;entryDx=0;entryDy=0;" edge="1" parent="1" source="q-5vX79E5HvLCE0JNWe8-17" target="q-5vX79E5HvLCE0JNWe8-20">
          <mxGeometry relative="1" as="geometry" />
        </mxCell>
        <mxCell id="q-5vX79E5HvLCE0JNWe8-17" value="&lt;font style=&quot;font-size: 7px;&quot;&gt;tradeId++&lt;br&gt;pre_Volume=volume&lt;br&gt;trade_status=1&lt;br&gt;entry(id=tradeId,stop=close*(1-0.3%)&lt;/font&gt;" style="rounded=0;whiteSpace=wrap;html=1;" vertex="1" parent="1">
          <mxGeometry x="320" y="710" width="120" height="60" as="geometry" />
        </mxCell>
        <mxCell id="q-5vX79E5HvLCE0JNWe8-23" style="edgeStyle=orthogonalEdgeStyle;rounded=0;orthogonalLoop=1;jettySize=auto;html=1;" edge="1" parent="1" source="q-5vX79E5HvLCE0JNWe8-20">
          <mxGeometry relative="1" as="geometry">
            <mxPoint x="20" y="250" as="targetPoint" />
          </mxGeometry>
        </mxCell>
        <mxCell id="q-5vX79E5HvLCE0JNWe8-31" value="NO" style="edgeLabel;html=1;align=center;verticalAlign=middle;resizable=0;points=[];" vertex="1" connectable="0" parent="q-5vX79E5HvLCE0JNWe8-23">
          <mxGeometry x="-0.7774" y="3" relative="1" as="geometry">
            <mxPoint as="offset" />
          </mxGeometry>
        </mxCell>
        <mxCell id="q-5vX79E5HvLCE0JNWe8-28" style="edgeStyle=orthogonalEdgeStyle;rounded=0;orthogonalLoop=1;jettySize=auto;html=1;exitX=0.5;exitY=1;exitDx=0;exitDy=0;entryX=0.5;entryY=0;entryDx=0;entryDy=0;" edge="1" parent="1" source="q-5vX79E5HvLCE0JNWe8-20" target="q-5vX79E5HvLCE0JNWe8-27">
          <mxGeometry relative="1" as="geometry" />
        </mxCell>
        <mxCell id="q-5vX79E5HvLCE0JNWe8-30" value="YES" style="edgeLabel;html=1;align=center;verticalAlign=middle;resizable=0;points=[];" vertex="1" connectable="0" parent="q-5vX79E5HvLCE0JNWe8-28">
          <mxGeometry x="0.0095" y="-4" relative="1" as="geometry">
            <mxPoint as="offset" />
          </mxGeometry>
        </mxCell>
        <mxCell id="q-5vX79E5HvLCE0JNWe8-20" value="&lt;font style=&quot;font-size: 8px;&quot;&gt;fibState_V+pre_fibState==5?&lt;/font&gt;" style="rhombus;whiteSpace=wrap;html=1;" vertex="1" parent="1">
          <mxGeometry x="320" y="800" width="120" height="80" as="geometry" />
        </mxCell>
        <mxCell id="q-5vX79E5HvLCE0JNWe8-26" value="" style="endArrow=classic;html=1;rounded=0;entryX=0;entryY=0.5;entryDx=0;entryDy=0;" edge="1" parent="1" target="q-5vX79E5HvLCE0JNWe8-4">
          <mxGeometry width="50" height="50" relative="1" as="geometry">
            <mxPoint x="20" y="250" as="sourcePoint" />
            <mxPoint x="380" y="340" as="targetPoint" />
          </mxGeometry>
        </mxCell>
        <mxCell id="q-5vX79E5HvLCE0JNWe8-29" style="edgeStyle=orthogonalEdgeStyle;rounded=0;orthogonalLoop=1;jettySize=auto;html=1;" edge="1" parent="1" source="q-5vX79E5HvLCE0JNWe8-27">
          <mxGeometry relative="1" as="geometry">
            <mxPoint x="20" y="840" as="targetPoint" />
          </mxGeometry>
        </mxCell>
        <mxCell id="q-5vX79E5HvLCE0JNWe8-27" value="trail stop(0.6%)" style="rounded=0;whiteSpace=wrap;html=1;" vertex="1" parent="1">
          <mxGeometry x="320" y="910" width="120" height="60" as="geometry" />
        </mxCell>
        <mxCell id="q-5vX79E5HvLCE0JNWe8-36" style="edgeStyle=orthogonalEdgeStyle;rounded=0;orthogonalLoop=1;jettySize=auto;html=1;entryX=0.5;entryY=0;entryDx=0;entryDy=0;" edge="1" parent="1" source="q-5vX79E5HvLCE0JNWe8-32" target="q-5vX79E5HvLCE0JNWe8-34">
          <mxGeometry relative="1" as="geometry" />
        </mxCell>
        <mxCell id="q-5vX79E5HvLCE0JNWe8-32" value="fibState&amp;gt;0" style="rhombus;whiteSpace=wrap;html=1;" vertex="1" parent="1">
          <mxGeometry x="550" y="600" width="120" height="80" as="geometry" />
        </mxCell>
        <mxCell id="q-5vX79E5HvLCE0JNWe8-38" style="edgeStyle=orthogonalEdgeStyle;rounded=0;orthogonalLoop=1;jettySize=auto;html=1;" edge="1" parent="1" source="q-5vX79E5HvLCE0JNWe8-34">
          <mxGeometry relative="1" as="geometry">
            <mxPoint x="480" y="940" as="targetPoint" />
          </mxGeometry>
        </mxCell>
        <mxCell id="q-5vX79E5HvLCE0JNWe8-34" value="&lt;font style=&quot;font-size: 9px;&quot;&gt;volume&amp;gt;pre_volume&lt;/font&gt;" style="rhombus;whiteSpace=wrap;html=1;" vertex="1" parent="1">
          <mxGeometry x="550" y="710" width="120" height="60" as="geometry" />
        </mxCell>
        <mxCell id="q-5vX79E5HvLCE0JNWe8-44" style="edgeStyle=orthogonalEdgeStyle;rounded=0;orthogonalLoop=1;jettySize=auto;html=1;" edge="1" parent="1" source="q-5vX79E5HvLCE0JNWe8-37">
          <mxGeometry relative="1" as="geometry">
            <mxPoint x="740" y="250" as="targetPoint" />
          </mxGeometry>
        </mxCell>
        <mxCell id="q-5vX79E5HvLCE0JNWe8-37" value="&lt;font style=&quot;font-size: 9px;&quot;&gt;enty(id=tradeId,,stop=close*(1-0.3%))&lt;br&gt;pre_Volume=volume&lt;br&gt;&lt;/font&gt;" style="rounded=0;whiteSpace=wrap;html=1;" vertex="1" parent="1">
          <mxGeometry x="550" y="810" width="120" height="60" as="geometry" />
        </mxCell>
        <mxCell id="q-5vX79E5HvLCE0JNWe8-39" value="" style="endArrow=classic;html=1;rounded=0;entryX=0.994;entryY=0.61;entryDx=0;entryDy=0;entryPerimeter=0;" edge="1" parent="1" target="q-5vX79E5HvLCE0JNWe8-27">
          <mxGeometry width="50" height="50" relative="1" as="geometry">
            <mxPoint x="480" y="940" as="sourcePoint" />
            <mxPoint x="540" y="740" as="targetPoint" />
          </mxGeometry>
        </mxCell>
        <mxCell id="q-5vX79E5HvLCE0JNWe8-40" style="edgeStyle=orthogonalEdgeStyle;rounded=0;orthogonalLoop=1;jettySize=auto;html=1;entryX=0.506;entryY=-0.057;entryDx=0;entryDy=0;entryPerimeter=0;" edge="1" parent="1" source="q-5vX79E5HvLCE0JNWe8-34" target="q-5vX79E5HvLCE0JNWe8-37">
          <mxGeometry relative="1" as="geometry" />
        </mxCell>
        <mxCell id="q-5vX79E5HvLCE0JNWe8-45" value="" style="endArrow=classic;html=1;rounded=0;entryX=1;entryY=0.5;entryDx=0;entryDy=0;" edge="1" parent="1" target="q-5vX79E5HvLCE0JNWe8-4">
          <mxGeometry width="50" height="50" relative="1" as="geometry">
            <mxPoint x="740" y="250" as="sourcePoint" />
            <mxPoint x="510" y="370" as="targetPoint" />
          </mxGeometry>
        </mxCell>
      </root>
    </mxGraphModel>
  </diagram>
</mxfile>
